<svg width="496" height="99" viewBox="0 0 496 99" fill="none" xmlns="http://www.w3.org/2000/svg">
<path d="M135.512 63.4821H140.655V68.625H135.512V63.4821ZM135.512 58.3393H140.655V63.4821H135.512V58.3393ZM135.512 53.1964H140.655V58.3393H135.512V53.1964ZM130.369 58.3393H135.512V63.4821H130.369V58.3393ZM130.369 53.1964H135.512V58.3393H130.369V53.1964ZM130.369 48.0536H135.512V53.1964H130.369V48.0536ZM125.226 53.1964H130.369V58.3393H125.226V53.1964ZM125.226 48.0536H130.369V53.1964H125.226V48.0536ZM140.655 53.1964H145.798V58.3393H140.655V53.1964ZM140.655 58.3393H145.798V63.4821H140.655V58.3393ZM140.655 48.0536H145.798V53.1964H140.655V48.0536ZM145.798 48.0536H150.94V53.1964H145.798V48.0536ZM145.798 53.1964H150.94V58.3393H145.798V53.1964ZM150.94 48.0536H156.083V53.1964H150.94V48.0536ZM120.083 48.0536H125.226V53.1964H120.083V48.0536ZM145.798 17.1964H150.94V22.3393H145.798V17.1964ZM150.94 17.1964H156.083V22.3393H150.94V17.1964ZM150.94 22.3393H156.083V27.4821H150.94V22.3393ZM150.94 27.4821H156.083V32.625H150.94V27.4821ZM150.94 32.625H156.083V37.7679H150.94V32.625ZM150.94 37.7679H156.083V42.9107H150.94V37.7679ZM145.798 37.7679H150.94V42.9107H145.798V37.7679ZM145.798 42.9107H150.94V48.0536H145.798V42.9107ZM145.798 32.625H150.94V37.7679H145.798V32.625ZM145.798 27.4821H150.94V32.625H145.798V27.4821ZM145.798 22.3393H150.94V27.4821H145.798V22.3393ZM150.94 42.9107H156.083V48.0536H150.94V42.9107ZM125.226 42.9107H130.369V48.0536H125.226V42.9107ZM120.083 42.9107H125.226V48.0536H120.083V42.9107ZM120.083 37.7679H125.226V42.9107H120.083V37.7679ZM125.226 37.7679H130.369V42.9107H125.226V37.7679ZM125.226 32.625H130.369V37.7679H125.226V32.625ZM120.083 32.625H125.226V37.7679H120.083V32.625ZM120.083 27.4821H125.226V32.625H120.083V27.4821ZM125.226 27.4821H130.369V32.625H125.226V27.4821ZM120.083 17.1964H125.226V22.3393H120.083V17.1964ZM125.226 17.1964H130.369V22.3393H125.226V17.1964ZM125.226 22.3393H130.369V27.4821H125.226V22.3393ZM120.083 22.3393H125.226V27.4821H120.083V22.3393Z" fill="#EF9651"/>
<path d="M161.24 63.4821H166.382V68.625H161.24V63.4821ZM166.382 63.4821H171.525V68.625H166.382V63.4821ZM166.382 58.3393H171.525V63.4821H166.382V58.3393ZM166.382 53.1964H171.525V58.3393H166.382V53.1964ZM166.382 48.0536H171.525V53.1964H166.382V48.0536ZM166.382 42.9107H171.525V48.0536H166.382V42.9107ZM166.382 37.7679H171.525V42.9107H166.382V37.7679ZM161.24 37.7679H166.382V42.9107H161.24V37.7679ZM161.24 42.9107H166.382V48.0536H161.24V42.9107ZM161.24 48.0536H166.382V53.1964H161.24V48.0536ZM161.24 53.1964H166.382V58.3393H161.24V53.1964ZM161.24 58.3393H166.382V63.4821H161.24V58.3393ZM161.24 32.625H166.382V37.7679H161.24V32.625ZM166.382 32.625H171.525V37.7679H166.382V32.625ZM166.382 27.4821H171.525V32.625H166.382V27.4821ZM166.382 22.3393H171.525V27.4821H166.382V22.3393ZM166.382 17.1964H171.525V22.3393H166.382V17.1964ZM161.24 17.1964H166.382V22.3393H161.24V17.1964ZM161.24 22.3393H166.382V27.4821H161.24V22.3393ZM161.24 27.4821H166.382V32.625H161.24V27.4821Z" fill="#EF9651"/>
<path d="M186.994 17.1964H192.137V22.3393H186.994V17.1964ZM181.851 17.1964H186.994V22.3393H181.851V17.1964ZM181.851 22.3393H186.994V27.4821H181.851V22.3393ZM186.994 22.3393H192.137V27.4821H186.994V22.3393ZM192.137 22.3393H197.28V27.4821H192.137V22.3393ZM192.137 17.1964H197.28V22.3393H192.137V17.1964ZM197.28 17.1964H202.423V22.3393H197.28V17.1964ZM202.423 17.1964H207.565V22.3393H202.423V17.1964ZM202.423 22.3393H207.565V27.4821H202.423V22.3393ZM197.28 22.3393H202.423V27.4821H197.28V22.3393ZM197.28 27.4821H202.423V32.625H197.28V27.4821ZM202.423 27.4821H207.565V32.625H202.423V27.4821ZM207.565 22.3393H212.708V27.4821H207.565V22.3393ZM207.565 27.4821H212.708V32.625H207.565V27.4821ZM207.565 32.625H212.708V37.7679H207.565V32.625ZM207.565 37.7679H212.708V42.9107H207.565V37.7679ZM207.565 42.9107H212.708V48.0536H207.565V42.9107ZM207.565 48.0536H212.708V53.1964H207.565V48.0536ZM207.565 53.1964H212.708V58.3393H207.565V53.1964ZM207.565 58.3393H212.708V63.4821H207.565V58.3393ZM202.423 58.3393H207.565V63.4821H202.423V58.3393ZM202.423 53.1964H207.565V58.3393H202.423V53.1964ZM202.423 48.0536H207.565V53.1964H202.423V48.0536ZM202.423 42.9107H207.565V48.0536H202.423V42.9107ZM202.423 37.7679H207.565V42.9107H202.423V37.7679ZM202.423 32.625H207.565V37.7679H202.423V32.625ZM197.28 53.1964H202.423V58.3393H197.28V53.1964ZM197.28 58.3393H202.423V63.4821H197.28V58.3393ZM202.423 63.4821H207.565V68.625H202.423V63.4821ZM197.28 63.4821H202.423V68.625H197.28V63.4821ZM192.137 63.4821H197.28V68.625H192.137V63.4821ZM192.137 58.3393H197.28V63.4821H192.137V58.3393ZM186.994 63.4821H192.137V68.625H186.994V63.4821ZM181.851 63.4821H186.994V68.625H181.851V63.4821ZM181.851 58.3393H186.994V63.4821H181.851V58.3393ZM186.994 58.3393H192.137V63.4821H186.994V58.3393ZM181.851 53.1964H186.994V58.3393H181.851V53.1964ZM176.708 58.3393H181.851V63.4821H176.708V58.3393ZM176.708 53.1964H181.851V58.3393H176.708V53.1964ZM176.708 48.0536H181.851V53.1964H176.708V48.0536ZM176.708 42.9107H181.851V48.0536H176.708V42.9107ZM176.708 37.7679H181.851V42.9107H176.708V37.7679ZM176.708 32.625H181.851V37.7679H176.708V32.625ZM176.708 27.4821H181.851V32.625H176.708V27.4821ZM181.851 27.4821H186.994V32.625H181.851V27.4821ZM176.708 22.3393H181.851V27.4821H176.708V22.3393ZM181.851 32.625H186.994V37.7679H181.851V32.625ZM181.851 37.7679H186.994V42.9107H181.851V37.7679ZM181.851 42.9107H186.994V48.0536H181.851V42.9107ZM181.851 48.0536H186.994V53.1964H181.851V48.0536ZM176.708 63.4821H181.851V68.625H176.708V63.4821ZM176.708 17.1964H181.851V22.3393H176.708V17.1964Z" fill="#EF9651"/>
<path d="M217.865 17.1964H223.007V22.3393H217.865V17.1964ZM223.007 17.1964H228.15V22.3393H223.007V17.1964ZM223.007 22.3393H228.15V27.4821H223.007V22.3393ZM223.007 27.4821H228.15V32.625H223.007V27.4821ZM217.865 27.4821H223.007V32.625H217.865V27.4821ZM217.865 22.3393H223.007V27.4821H217.865V22.3393ZM217.865 32.625H223.007V37.7679H217.865V32.625ZM217.865 37.7679H223.007V42.9107H217.865V37.7679ZM223.007 37.7679H228.15V42.9107H223.007V37.7679ZM223.007 32.625H228.15V37.7679H223.007V32.625ZM223.007 42.9107H228.15V48.0536H223.007V42.9107ZM228.15 42.9107H233.293V48.0536H228.15V42.9107ZM228.15 37.7679H233.293V42.9107H228.15V37.7679ZM228.15 48.0536H233.293V53.1964H228.15V48.0536ZM233.293 48.0536H238.436V53.1964H233.293V48.0536ZM233.293 42.9107H238.436V48.0536H233.293V42.9107ZM238.436 42.9107H243.579V48.0536H238.436V42.9107ZM238.436 48.0536H243.579V53.1964H238.436V48.0536ZM243.579 48.0536H248.722V53.1964H243.579V48.0536ZM243.579 42.9107H248.722V48.0536H243.579V42.9107ZM243.579 37.7679H248.722V42.9107H243.579V37.7679ZM248.722 37.7679H253.865V42.9107H248.722V37.7679ZM248.722 42.9107H253.865V48.0536H248.722V42.9107ZM248.722 32.625H253.865V37.7679H248.722V32.625ZM248.722 27.4821H253.865V32.625H248.722V27.4821ZM248.722 22.3393H253.865V27.4821H248.722V22.3393ZM248.722 17.1964H253.865V22.3393H248.722V17.1964ZM253.865 17.1964H259.007V22.3393H253.865V17.1964ZM253.865 22.3393H259.007V27.4821H253.865V22.3393ZM253.865 27.4821H259.007V32.625H253.865V27.4821ZM253.865 32.625H259.007V37.7679H253.865V32.625ZM253.865 37.7679H259.007V42.9107H253.865V37.7679ZM233.293 53.1964H238.436V58.3393H233.293V53.1964ZM233.293 58.3393H238.436V63.4821H233.293V58.3393ZM233.293 63.4821H238.436V68.625H233.293V63.4821ZM238.436 63.4821H243.579V68.625H238.436V63.4821ZM238.436 58.3393H243.579V63.4821H238.436V58.3393ZM238.436 53.1964H243.579V58.3393H238.436V53.1964Z" fill="#EF9651"/>
<path d="M274.463 22.3393H279.606V27.4821H274.463V22.3393ZM279.606 22.3393H284.749V27.4821H279.606V22.3393ZM279.606 17.1964H284.749V22.3393H279.606V17.1964ZM284.749 22.3393H289.891V27.4821H284.749V22.3393ZM284.749 27.4821H289.891V32.625H284.749V27.4821ZM289.891 27.4821H295.034V32.625H289.891V27.4821ZM279.606 27.4821H284.749V32.625H279.606V27.4821ZM274.463 27.4821H279.606V32.625H274.463V27.4821ZM269.32 27.4821H274.463V32.625H269.32V27.4821ZM269.32 32.625H274.463V37.7679H269.32V32.625ZM264.177 32.625H269.32V37.7679H264.177V32.625ZM274.463 32.625H279.606V37.7679H274.463V32.625ZM269.32 37.7679H274.463V42.9107H269.32V37.7679ZM269.32 42.9107H274.463V48.0536H269.32V42.9107ZM269.32 48.0536H274.463V53.1964H269.32V48.0536ZM274.463 48.0536H279.606V53.1964H274.463V48.0536ZM279.606 48.0536H284.749V53.1964H279.606V48.0536ZM284.749 48.0536H289.891V53.1964H284.749V48.0536ZM289.891 48.0536H295.034V53.1964H289.891V48.0536ZM295.034 48.0536H300.177V53.1964H295.034V48.0536ZM295.034 42.9107H300.177V48.0536H295.034V42.9107ZM295.034 37.7679H300.177V42.9107H295.034V37.7679ZM295.034 32.625H300.177V37.7679H295.034V32.625ZM289.891 32.625H295.034V37.7679H289.891V32.625ZM284.749 32.625H289.891V37.7679H284.749V32.625ZM289.891 37.7679H295.034V42.9107H289.891V37.7679ZM289.891 42.9107H295.034V48.0536H289.891V42.9107ZM289.891 53.1964H295.034V58.3393H289.891V53.1964ZM295.034 53.1964H300.177V58.3393H295.034V53.1964ZM295.034 58.3393H300.177V63.4821H295.034V58.3393ZM295.034 63.4821H300.177V68.625H295.034V63.4821ZM289.891 63.4821H295.034V68.625H289.891V63.4821ZM289.891 58.3393H295.034V63.4821H289.891V58.3393ZM284.749 53.1964H289.891V58.3393H284.749V53.1964ZM279.606 53.1964H284.749V58.3393H279.606V53.1964ZM274.463 53.1964H279.606V58.3393H274.463V53.1964ZM269.32 53.1964H274.463V58.3393H269.32V53.1964ZM269.32 58.3393H274.463V63.4821H269.32V58.3393ZM269.32 63.4821H274.463V68.625H269.32V63.4821ZM264.177 63.4821H269.32V68.625H264.177V63.4821ZM264.177 58.3393H269.32V63.4821H264.177V58.3393ZM264.177 53.1964H269.32V58.3393H264.177V53.1964ZM264.177 48.0536H269.32V53.1964H264.177V48.0536ZM264.177 42.9107H269.32V48.0536H264.177V42.9107ZM264.177 37.7679H269.32V42.9107H264.177V37.7679Z" fill="#EF9651"/>
<path d="M315.619 17.1964H320.762V22.3393H315.619V17.1964ZM310.476 17.1964H315.619V22.3393H310.476V17.1964ZM310.476 22.3393H315.619V27.4821H310.476V22.3393ZM315.619 22.3393H320.762V27.4821H315.619V22.3393ZM320.762 22.3393H325.905V27.4821H320.762V22.3393ZM320.762 17.1964H325.905V22.3393H320.762V17.1964ZM325.905 17.1964H331.048V22.3393H325.905V17.1964ZM331.048 17.1964H336.19V22.3393H331.048V17.1964ZM331.048 22.3393H336.19V27.4821H331.048V22.3393ZM325.905 22.3393H331.048V27.4821H325.905V22.3393ZM325.905 27.4821H331.048V32.625H325.905V27.4821ZM331.048 27.4821H336.19V32.625H331.048V27.4821ZM336.19 22.3393H341.333V27.4821H336.19V22.3393ZM336.19 27.4821H341.333V32.625H336.19V27.4821ZM336.19 32.625H341.333V37.7679H336.19V32.625ZM336.19 37.7679H341.333V42.9107H336.19V37.7679ZM336.19 42.9107H341.333V48.0536H336.19V42.9107ZM336.19 48.0536H341.333V53.1964H336.19V48.0536ZM336.19 53.1964H341.333V58.3393H336.19V53.1964ZM336.19 58.3393H341.333V63.4821H336.19V58.3393ZM331.048 58.3393H336.19V63.4821H331.048V58.3393ZM331.048 53.1964H336.19V58.3393H331.048V53.1964ZM331.048 48.0536H336.19V53.1964H331.048V48.0536ZM331.048 42.9107H336.19V48.0536H331.048V42.9107ZM331.048 37.7679H336.19V42.9107H331.048V37.7679ZM331.048 32.625H336.19V37.7679H331.048V32.625ZM325.905 53.1964H331.048V58.3393H325.905V53.1964ZM325.905 58.3393H331.048V63.4821H325.905V58.3393ZM325.905 63.4821H331.048V68.625H325.905V63.4821ZM320.762 63.4821H325.905V68.625H320.762V63.4821ZM320.762 58.3393H325.905V63.4821H320.762V58.3393ZM315.619 63.4821H320.762V68.625H315.619V63.4821ZM310.476 63.4821H315.619V68.625H310.476V63.4821ZM310.476 58.3393H315.619V63.4821H310.476V58.3393ZM315.619 58.3393H320.762V63.4821H315.619V58.3393ZM315.619 53.1964H320.762V58.3393H315.619V53.1964ZM310.476 53.1964H315.619V58.3393H310.476V53.1964ZM305.333 58.3393H310.476V63.4821H305.333V58.3393ZM305.333 53.1964H310.476V58.3393H305.333V53.1964ZM305.333 48.0536H310.476V53.1964H305.333V48.0536ZM305.333 42.9107H310.476V48.0536H305.333V42.9107ZM305.333 37.7679H310.476V42.9107H305.333V37.7679ZM305.333 32.625H310.476V37.7679H305.333V32.625ZM305.333 27.4821H310.476V32.625H305.333V27.4821ZM310.476 27.4821H315.619V32.625H310.476V27.4821ZM305.333 22.3393H310.476V27.4821H305.333V22.3393ZM315.619 27.4821H320.762V32.625H315.619V27.4821ZM310.476 32.625H315.619V37.7679H310.476V32.625ZM310.476 37.7679H315.619V42.9107H310.476V37.7679ZM310.476 42.9107H315.619V48.0536H310.476V42.9107ZM310.476 48.0536H315.619V53.1964H310.476V48.0536ZM320.762 68.625H325.905V73.7679H320.762V68.625ZM325.905 68.625H331.048V73.7679H325.905V68.625ZM331.048 68.625H336.19V73.7679H331.048V68.625ZM325.905 73.7679H331.048V78.9107H325.905V73.7679ZM331.048 73.7679H336.19V78.9107H331.048V73.7679ZM336.19 73.7679H341.333V78.9107H336.19V73.7679ZM336.19 68.625H341.333V73.7679H336.19V68.625Z" fill="#EF9651"/>
<path d="M351.632 22.3393H356.775V27.4821H351.632V22.3393ZM372.204 22.3393H377.347V27.4821H372.204V22.3393ZM372.204 27.4821H377.347V32.625H372.204V27.4821ZM377.347 22.3393H382.49V27.4821H377.347V22.3393ZM377.347 27.4821H382.49V32.625H377.347V27.4821ZM377.347 32.625H382.49V37.7679H377.347V32.625ZM377.347 37.7679H382.49V42.9107H377.347V37.7679ZM377.347 42.9107H382.49V48.0536H377.347V42.9107ZM377.347 48.0536H382.49V53.1964H377.347V48.0536ZM377.347 53.1964H382.49V58.3393H377.347V53.1964ZM377.347 58.3393H382.49V63.4821H377.347V58.3393ZM372.204 58.3393H377.347V63.4821H372.204V58.3393ZM372.204 53.1964H377.347V58.3393H372.204V53.1964ZM372.204 48.0536H377.347V53.1964H372.204V48.0536ZM372.204 42.9107H377.347V48.0536H372.204V42.9107ZM372.204 37.7679H377.347V42.9107H372.204V37.7679ZM372.204 32.625H377.347V37.7679H372.204V32.625ZM367.061 53.1964H372.204V58.3393H367.061V53.1964ZM367.061 58.3393H372.204V63.4821H367.061V58.3393ZM372.204 63.4821H377.347V68.625H372.204V63.4821ZM367.061 63.4821H372.204V68.625H367.061V63.4821ZM361.918 63.4821H367.061V68.625H361.918V63.4821ZM361.918 58.3393H367.061V63.4821H361.918V58.3393ZM356.775 63.4821H361.918V68.625H356.775V63.4821ZM351.632 63.4821H356.775V68.625H351.632V63.4821ZM351.632 58.3393H356.775V63.4821H351.632V58.3393ZM356.775 58.3393H361.918V63.4821H356.775V58.3393ZM356.775 53.1964H361.918V58.3393H356.775V53.1964ZM351.632 53.1964H356.775V58.3393H351.632V53.1964ZM346.49 58.3393H351.632V63.4821H346.49V58.3393ZM346.49 53.1964H351.632V58.3393H346.49V53.1964ZM346.49 48.0536H351.632V53.1964H346.49V48.0536ZM346.49 42.9107H351.632V48.0536H346.49V42.9107ZM346.49 37.7679H351.632V42.9107H346.49V37.7679ZM346.49 32.625H351.632V37.7679H346.49V32.625ZM346.49 27.4821H351.632V32.625H346.49V27.4821ZM351.632 27.4821H356.775V32.625H351.632V27.4821ZM346.49 22.3393H351.632V27.4821H346.49V22.3393ZM351.632 32.625H356.775V37.7679H351.632V32.625ZM351.632 37.7679H356.775V42.9107H351.632V37.7679ZM351.632 42.9107H356.775V48.0536H351.632V42.9107ZM351.632 48.0536H356.775V53.1964H351.632V48.0536ZM346.49 17.1964H351.632V22.3393H346.49V17.1964ZM351.632 17.1964H356.775V22.3393H351.632V17.1964ZM372.204 17.1964H377.347V22.3393H372.204V17.1964ZM377.347 17.1964H382.49V22.3393H377.347V17.1964Z" fill="#EF9651"/>
<path d="M387.646 17.1964H392.789V22.3393H387.646V17.1964ZM392.789 17.1964H397.932V22.3393H392.789V17.1964ZM392.789 22.3393H397.932V27.4821H392.789V22.3393ZM392.789 27.4821H397.932V32.625H392.789V27.4821ZM392.789 32.625H397.932V37.7679H392.789V32.625ZM387.646 32.625H392.789V37.7679H387.646V32.625ZM387.646 27.4821H392.789V32.625H387.646V27.4821ZM387.646 22.3393H392.789V27.4821H387.646V22.3393ZM387.646 37.7679H392.789V42.9107H387.646V37.7679ZM387.646 42.9107H392.789V48.0536H387.646V42.9107ZM387.646 48.0536H392.789V53.1964H387.646V48.0536ZM392.789 42.9107H397.932V48.0536H392.789V42.9107ZM392.789 37.7679H397.932V42.9107H392.789V37.7679ZM392.789 48.0536H397.932V53.1964H392.789V48.0536ZM392.789 53.1964H397.932V58.3393H392.789V53.1964ZM387.646 58.3393H392.789V63.4821H387.646V58.3393ZM387.646 53.1964H392.789V58.3393H387.646V53.1964ZM387.646 63.4821H392.789V68.625H387.646V63.4821ZM392.789 63.4821H397.932V68.625H392.789V63.4821ZM392.789 58.3393H397.932V63.4821H392.789V58.3393ZM397.932 63.4821H403.074V68.625H397.932V63.4821ZM403.074 63.4821H408.217V68.625H403.074V63.4821ZM408.217 63.4821H413.36V68.625H408.217V63.4821ZM408.217 58.3393H413.36V63.4821H408.217V58.3393ZM403.074 58.3393H408.217V63.4821H403.074V58.3393ZM397.932 58.3393H403.074V63.4821H397.932V58.3393ZM397.932 17.1964H403.074V22.3393H397.932V17.1964ZM403.074 17.1964H408.217V22.3393H403.074V17.1964ZM408.217 17.1964H413.36V22.3393H408.217V17.1964ZM413.36 17.1964H418.503V22.3393H413.36V17.1964ZM408.217 22.3393H413.36V27.4821H408.217V22.3393ZM403.074 22.3393H408.217V27.4821H403.074V22.3393ZM397.932 22.3393H403.074V27.4821H397.932V22.3393ZM397.932 42.9107H403.074V48.0536H397.932V42.9107ZM403.074 37.7679H408.217V42.9107H403.074V37.7679ZM397.932 37.7679H403.074V42.9107H397.932V37.7679ZM403.074 42.9107H408.217V48.0536H403.074V42.9107ZM413.36 22.3393H418.503V27.4821H413.36V22.3393ZM413.36 58.3393H418.503V63.4821H413.36V58.3393ZM413.36 63.4821H418.503V68.625H413.36V63.4821ZM408.217 37.7679H413.36V42.9107H408.217V37.7679ZM408.217 42.9107H413.36V48.0536H408.217V42.9107Z" fill="#EF9651"/>
<path d="M454.503 27.4821H459.646V32.625H454.503V27.4821ZM449.36 27.4821H454.503V32.625H449.36V27.4821ZM449.36 22.3393H454.503V27.4821H449.36V22.3393ZM454.503 22.3393H459.646V27.4821H454.503V22.3393ZM449.36 17.1964H454.503V22.3393H449.36V17.1964ZM444.217 17.1964H449.36V22.3393H444.217V17.1964ZM444.217 22.3393H449.36V27.4821H444.217V22.3393ZM439.074 22.3393H444.217V27.4821H439.074V22.3393ZM433.932 22.3393H439.074V27.4821H433.932V22.3393ZM433.932 17.1964H439.074V22.3393H433.932V17.1964ZM428.789 17.1964H433.932V22.3393H428.789V17.1964ZM439.074 17.1964H444.217V22.3393H439.074V17.1964ZM428.789 22.3393H433.932V27.4821H428.789V22.3393ZM423.646 22.3393H428.789V27.4821H423.646V22.3393ZM423.646 27.4821H428.789V32.625H423.646V27.4821ZM428.789 27.4821H433.932V32.625H428.789V27.4821ZM428.789 32.625H433.932V37.7679H428.789V32.625ZM428.789 37.7679H433.932V42.9107H428.789V37.7679ZM423.646 37.7679H428.789V42.9107H423.646V37.7679ZM423.646 32.625H428.789V37.7679H423.646V32.625ZM428.789 42.9107H433.932V48.0536H428.789V42.9107ZM433.932 42.9107H439.074V48.0536H433.932V42.9107ZM433.932 37.7679H439.074V42.9107H433.932V37.7679ZM439.074 37.7679H444.217V42.9107H439.074V37.7679ZM444.217 37.7679H449.36V42.9107H444.217V37.7679ZM449.36 37.7679H454.503V42.9107H449.36V37.7679ZM449.36 42.9107H454.503V48.0536H449.36V42.9107ZM444.217 42.9107H449.36V48.0536H444.217V42.9107ZM439.074 42.9107H444.217V48.0536H439.074V42.9107ZM454.503 42.9107H459.646V48.0536H454.503V42.9107ZM454.503 48.0536H459.646V53.1964H454.503V48.0536ZM449.36 48.0536H454.503V53.1964H449.36V48.0536ZM444.217 58.3393H449.36V63.4821H444.217V58.3393ZM449.36 58.3393H454.503V63.4821H449.36V58.3393ZM449.36 53.1964H454.503V58.3393H449.36V53.1964ZM454.503 53.1964H459.646V58.3393H454.503V53.1964ZM454.503 58.3393H459.646V63.4821H454.503V58.3393ZM449.36 63.4821H454.503V68.625H449.36V63.4821ZM444.217 63.4821H449.36V68.625H444.217V63.4821ZM439.074 63.4821H444.217V68.625H439.074V63.4821ZM433.932 63.4821H439.074V68.625H433.932V63.4821ZM428.789 63.4821H433.932V68.625H428.789V63.4821ZM428.789 58.3393H433.932V63.4821H428.789V58.3393ZM433.932 58.3393H439.074V63.4821H433.932V58.3393ZM439.074 58.3393H444.217V63.4821H439.074V58.3393ZM423.646 58.3393H428.789V63.4821H423.646V58.3393ZM423.646 53.1964H428.789V58.3393H423.646V53.1964ZM428.789 53.1964H433.932V58.3393H428.789V53.1964Z" fill="#EF9651"/>
<path d="M464.802 17.1964H469.945V22.3393H464.802V17.1964ZM469.945 17.1964H475.088V22.3393H469.945V17.1964ZM475.088 17.1964H480.231V22.3393H475.088V17.1964ZM480.231 17.1964H485.374V22.3393H480.231V17.1964ZM485.374 17.1964H490.516V22.3393H485.374V17.1964ZM490.516 17.1964H495.659V22.3393H490.516V17.1964ZM490.516 22.3393H495.659V27.4821H490.516V22.3393ZM485.374 22.3393H490.516V27.4821H485.374V22.3393ZM480.231 22.3393H485.374V27.4821H480.231V22.3393ZM475.088 22.3393H480.231V27.4821H475.088V22.3393ZM469.945 22.3393H475.088V27.4821H469.945V22.3393ZM464.802 22.3393H469.945V27.4821H464.802V22.3393ZM475.088 27.4821H480.231V32.625H475.088V27.4821ZM475.088 32.625H480.231V37.7679H475.088V32.625ZM475.088 37.7679H480.231V42.9107H475.088V37.7679ZM475.088 42.9107H480.231V48.0536H475.088V42.9107ZM475.088 48.0536H480.231V53.1964H475.088V48.0536ZM475.088 53.1964H480.231V58.3393H475.088V53.1964ZM480.231 48.0536H485.374V53.1964H480.231V48.0536ZM480.231 42.9107H485.374V48.0536H480.231V42.9107ZM480.231 37.7679H485.374V42.9107H480.231V37.7679ZM480.231 32.625H485.374V37.7679H480.231V32.625ZM480.231 27.4821H485.374V32.625H480.231V27.4821ZM480.231 53.1964H485.374V58.3393H480.231V53.1964ZM480.231 58.3393H485.374V63.4821H480.231V58.3393ZM480.231 63.4821H485.374V68.625H480.231V63.4821ZM475.088 63.4821H480.231V68.625H475.088V63.4821ZM475.088 58.3393H480.231V63.4821H475.088V58.3393Z" fill="#EF9651"/>
<path d="M0 0H32.75C38.5406 0 44.094 2.30029 48.1885 6.39483C52.283 10.4894 54.5833 16.0428 54.5833 21.8333V98.25C54.5833 93.9071 52.8581 89.742 49.7872 86.6711C46.7163 83.6002 42.5513 81.875 38.2083 81.875H0V0Z" fill="#EF9651"/>
<path d="M109.167 0H76.4167C70.6261 0 65.0727 2.30029 60.9782 6.39483C56.8836 10.4894 54.5833 16.0428 54.5833 21.8333V98.25C54.5833 93.9071 56.3086 89.742 59.3795 86.6711C62.4504 83.6002 66.6154 81.875 70.9583 81.875H109.167V0Z" fill="#EF9651"/>
</svg>
